<svg width="24" height="24" viewBox="0 0 24 24" fill="none" xmlns="http://www.w3.org/2000/svg">
<path opacity="0.1" fill-rule="evenodd" clip-rule="evenodd" d="M0 12C0 5.37258 5.37258 0 12 0C18.6274 0 24 5.37258 24 12C24 18.6274 18.6274 24 12 24C5.37258 24 0 18.6274 0 12Z" fill="#222222"/>
<path fill-rule="evenodd" clip-rule="evenodd" d="M18.4001 11.9907C18.4001 12.4236 18.356 12.8558 18.2695 13.2771C18.1851 13.6884 18.0601 14.0922 17.8963 14.4782C17.7363 14.8574 17.5379 15.2228 17.306 15.5636C17.0776 15.9022 16.8144 16.2199 16.5253 16.5095C16.2356 16.7978 15.9169 17.0602 15.5784 17.2896C15.2365 17.5199 14.8706 17.7181 14.4912 17.8788C14.1046 18.0417 13.6999 18.1665 13.2889 18.2508C12.867 18.3375 12.4333 18.3818 11.9998 18.3818C11.566 18.3818 11.1323 18.3375 10.711 18.2508C10.2994 18.1665 9.89471 18.0417 9.50844 17.8788C9.12905 17.7181 8.76277 17.5199 8.42088 17.2896C8.08243 17.0602 7.76366 16.7978 7.47458 16.5095C7.1852 16.2199 6.92205 15.9022 6.69329 15.5636C6.46265 15.2228 6.26388 14.8574 6.10326 14.4782C5.93948 14.0922 5.81418 13.6884 5.72948 13.2771C5.64386 12.8558 5.6001 12.4236 5.6001 11.9907C5.6001 11.5576 5.64384 11.1244 5.72951 10.7041C5.8142 10.2928 5.9395 9.88833 6.10328 9.50293C6.2639 9.12347 6.46268 8.75774 6.69332 8.41695C6.92207 8.07806 7.18523 7.76098 7.47461 7.47106C7.76369 7.1827 8.08245 6.9209 8.42091 6.69185C8.76279 6.46059 9.12908 6.26246 9.50846 6.10142C9.89474 5.93818 10.2994 5.81305 10.711 5.72943C11.1323 5.64331 11.5661 5.59961 11.9998 5.59961C12.4333 5.59961 12.8671 5.64331 13.2889 5.72943C13.6999 5.81308 14.1046 5.9382 14.4912 6.10142C14.8706 6.26243 15.2366 6.46059 15.5784 6.69185C15.9169 6.9209 16.2357 7.1827 16.5254 7.47106C16.8144 7.76098 17.0776 8.07806 17.306 8.41695C17.5379 8.75774 17.7363 9.1235 17.8963 9.50293C18.0601 9.88833 18.1851 10.2928 18.2695 10.7041C18.356 11.1244 18.4001 11.5576 18.4001 11.9907ZM9.66779 7.05414C8.14363 7.77285 7.00607 9.17526 6.65136 10.8654C6.79545 10.8667 9.07307 10.8954 11.6973 10.1991C10.7513 8.52085 9.74061 7.15122 9.66779 7.05414ZM12.1501 11.0396C9.33589 11.8809 6.63543 11.8203 6.53856 11.8166C6.53698 11.8753 6.53417 11.932 6.53417 11.9907C6.53417 13.3928 7.06389 14.671 7.93456 15.6375C7.93268 15.6347 9.4284 12.985 12.3779 12.0326C12.4492 12.0088 12.5217 11.9876 12.5936 11.967C12.4564 11.6568 12.3067 11.346 12.1501 11.0396ZM15.6094 7.89455C14.6471 7.04727 13.3836 6.53333 11.9998 6.53333C11.5557 6.53333 11.1247 6.58701 10.7119 6.68624C10.7938 6.7961 11.8204 8.15607 12.7551 9.86991C14.8174 9.09788 15.5959 7.91451 15.6094 7.89455ZM12.9661 12.8714C12.9539 12.8754 12.9418 12.8789 12.9299 12.8832C9.70507 14.0058 8.65196 16.2682 8.64057 16.2929C9.56845 17.0134 10.7323 17.4481 11.9998 17.4481C12.7567 17.4481 13.4777 17.2942 14.1337 17.0156C14.0527 16.5388 13.7352 14.8674 12.9661 12.8714ZM15.054 16.5169C16.2813 15.69 17.1528 14.3768 17.396 12.8557C17.2835 12.8196 15.7543 12.3362 13.9902 12.6186C14.7071 14.5859 14.9984 16.188 15.054 16.5169ZM13.1758 10.6832C13.3027 10.9434 13.4255 11.2083 13.539 11.4746C13.5793 11.5701 13.6187 11.6637 13.6571 11.7573C15.5347 11.5214 17.3845 11.9183 17.4635 11.9345C17.451 10.6407 16.9876 9.4533 16.2207 8.52368C16.2104 8.53831 15.3338 9.80312 13.1758 10.6832Z" fill="#222222"/>
</svg>
