<svg width="24" height="24" viewBox="0 0 24 24" fill="none" xmlns="http://www.w3.org/2000/svg">
<path fill-rule="evenodd" clip-rule="evenodd" d="M13.6982 2.10465L12.5 3.19394L11.3018 2.10465C9.42732 0.400596 6.80698 1.9314 6.73078 3.99995H4C2.34315 3.99995 1 5.34309 1 6.99995V8.88883C1 9.69296 1.44959 10.3921 2.11111 10.7485V18.9999C2.11111 21.2091 3.90197 22.9999 6.11111 22.9999H17.8889C20.098 22.9999 21.8889 21.2091 21.8889 18.9999V10.7485C22.5504 10.3921 23 9.69296 23 8.88883V6.99995C23 5.34309 21.6569 3.99995 20 3.99995H18.2692C18.193 1.9314 15.5727 0.400596 13.6982 2.10465ZM8.01833 5.99995C8.00673 6.00015 7.99514 6.00015 7.98356 5.99995H4C3.44772 5.99995 3 6.44766 3 6.99995V8.88883C3 8.9502 3.04975 8.99995 3.11111 8.99995H20.8889C20.9503 8.99995 21 8.9502 21 8.88883V6.99995C21 6.44766 20.5523 5.99995 20 5.99995H17.0164C17.0049 6.00015 16.9933 6.00015 16.9817 5.99995H8.01833ZM13.5 10.9999H10.5V13.6875C10.5 13.7219 10.5084 13.7381 10.5147 13.7477C10.5234 13.7609 10.5393 13.7765 10.5631 13.7879C10.587 13.7994 10.6091 13.8021 10.6248 13.8006C10.6363 13.7996 10.6542 13.796 10.681 13.7745C11.4521 13.1576 12.5479 13.1576 13.319 13.7745C13.3458 13.796 13.3637 13.7996 13.3752 13.8006C13.3909 13.8021 13.413 13.7994 13.4369 13.7879C13.4607 13.7765 13.4766 13.7609 13.4853 13.7477C13.4916 13.7381 13.5 13.7219 13.5 13.6875V10.9999ZM8.5 10.9999V13.6875C8.5 15.4579 10.5479 16.4422 11.9304 15.3362C11.9711 15.3037 12.0289 15.3037 12.0696 15.3362C13.4521 16.4422 15.5 15.4579 15.5 13.6875V10.9999H19.8889V18.9999C19.8889 20.1045 18.9935 20.9999 17.8889 20.9999H6.11111C5.00654 20.9999 4.11111 20.1045 4.11111 18.9999V10.9999H8.5ZM9.95644 3.58453L10.4134 3.99995H8.75741C8.84147 3.4984 9.48734 3.15808 9.95644 3.58453ZM16.2426 3.99995C16.1585 3.4984 15.5127 3.15808 15.0436 3.58453L14.5866 3.99995H16.2426Z" fill="white"/>
</svg>
