<svg width="22" height="22" viewBox="0 0 22 22" fill="none" xmlns="http://www.w3.org/2000/svg">
<path fill-rule="evenodd" clip-rule="evenodd" d="M12.6982 1.10465L11.5 2.19394L10.3018 1.10465C8.42732 -0.599404 5.80698 0.931403 5.73078 2.99995H3C1.34315 2.99995 0 4.34309 0 5.99995V7.88883C0 8.69296 0.449588 9.39208 1.11111 9.74854V17.9999C1.11111 20.2091 2.90197 21.9999 5.11111 21.9999H16.8889C19.098 21.9999 20.8889 20.2091 20.8889 17.9999V9.74854C21.5504 9.39208 22 8.69296 22 7.88883V5.99995C22 4.34309 20.6569 2.99995 19 2.99995H17.2692C17.193 0.931403 14.5727 -0.599404 12.6982 1.10465ZM7.01833 4.99995C7.00673 5.00015 6.99514 5.00015 6.98356 4.99995H3C2.44772 4.99995 2 5.44766 2 5.99995V7.88883C2 7.9502 2.04975 7.99995 2.11111 7.99995H19.8889C19.9503 7.99995 20 7.9502 20 7.88883V5.99995C20 5.44766 19.5523 4.99995 19 4.99995H16.0164C16.0049 5.00015 15.9933 5.00015 15.9817 4.99995H7.01833ZM12.5 9.99995H9.5V12.6875C9.5 12.7219 9.50835 12.7381 9.51468 12.7477C9.5234 12.7609 9.53934 12.7765 9.56315 12.7879C9.58696 12.7994 9.60907 12.8021 9.62485 12.8006C9.63629 12.7996 9.65415 12.796 9.68101 12.7745C10.4521 12.1576 11.5479 12.1576 12.319 12.7745C12.3458 12.796 12.3637 12.7996 12.3752 12.8006C12.3909 12.8021 12.413 12.7994 12.4369 12.7879C12.4607 12.7765 12.4766 12.7609 12.4853 12.7477C12.4916 12.7381 12.5 12.7219 12.5 12.6875V9.99995ZM7.5 9.99995V12.6875C7.5 14.4579 9.54793 15.4422 10.9304 14.3362C10.9711 14.3037 11.0289 14.3037 11.0696 14.3362C12.4521 15.4422 14.5 14.4579 14.5 12.6875V9.99995H18.8889V17.9999C18.8889 19.1045 17.9935 19.9999 16.8889 19.9999H5.11111C4.00654 19.9999 3.11111 19.1045 3.11111 17.9999V9.99995H7.5ZM8.95644 2.58453L9.41339 2.99995H7.75741C7.84147 2.4984 8.48734 2.15808 8.95644 2.58453ZM15.2426 2.99995C15.1585 2.4984 14.5127 2.15808 14.0436 2.58453L13.5866 2.99995H15.2426Z" fill="white"/>
</svg>
