<svg width="99" height="50" viewBox="0 0 99 50" fill="none" xmlns="http://www.w3.org/2000/svg">
<g filter="url(#filter0_d_1001_743)">
<path d="M18.1434 9.66834C18.1852 7.93805 19.6065 6.55068 21.3533 6.55068H21.9884L21.9968 6.04932H4L4.00847 6.55068H4.65201C6.39091 6.54221 7.81166 7.93805 7.85339 9.6768V37.4932C7.82013 39.2398 6.39877 40.6526 4.64354 40.6526H4.00847L4 41.1539H21.9968L21.9884 40.6526H21.3533C19.5981 40.6526 18.1682 39.2398 18.135 37.4932L18.1434 9.66834ZM94.2115 40.776H93.5765C91.8212 40.776 90.3914 39.7164 90.3666 38.3986V17.3969C90.4083 16.0911 91.8297 15.0382 93.5765 15.0382H94.2115L94.22 14.6596H76.2232L76.2316 15.0382H76.8667C78.6135 15.0382 80.0348 16.0917 80.0766 17.4035V38.3992C80.0766 39.6287 78.282 39.4158 76.5274 39.4333L67.3321 39.5247C64.6594 39.4606 60.711 40.2401 60.711 37.5029V25.0153L70.5498 9.50202C71.5696 7.94713 73.5008 6.55129 75.6069 6.55129H76.3091V6.04992H63.8126V6.55129H64.4477C65.8104 6.55129 66.9886 8.23137 66.2029 9.66048L59.081 22.0561L52.1847 9.65261C51.4577 8.23198 52.4774 6.55189 53.9399 6.55189H54.575V6.05053H42.142H35.1991H30.0466V6.49323H30.5316C31.9022 6.49323 32.5379 7.73848 31.7437 8.85007L19.7487 25.1992C19.7487 25.308 25.1547 34.0109 26.72 36.1403C30.6296 41.4582 38.155 41.1467 39.5848 41.1467H46.2252L67.6726 41.1552V41.1546L94.22 41.1552L94.2115 40.7766V40.776ZM38.585 7.29577C39.543 7.83161 40.3553 8.6015 40.8834 9.41796L50.421 24.9893V37.5271C50.421 39.6456 48.7492 39.1878 46.146 39.3456C44.1065 39.2954 41.2723 39.3051 39.6513 36.8582L27.9484 19.1973L36.4076 8.96679C37.0009 8.29306 37.7431 7.71973 38.585 7.29577Z" fill="#FEFEFE"/>
<path d="M85.2213 12.6336C88.4769 12.6336 91.116 9.99471 91.116 6.73943C91.116 3.48414 88.4769 0.845215 85.2213 0.845215C81.9657 0.845215 79.3266 3.48414 79.3266 6.73943C79.3266 9.99471 81.9657 12.6336 85.2213 12.6336Z" fill="#FEFEFE"/>
</g>
<defs>
<filter id="filter0_d_1001_743" x="0" y="0.845215" width="98.22" height="48.3101" filterUnits="userSpaceOnUse" color-interpolation-filters="sRGB">
<feFlood flood-opacity="0" result="BackgroundImageFix"/>
<feColorMatrix in="SourceAlpha" type="matrix" values="0 0 0 0 0 0 0 0 0 0 0 0 0 0 0 0 0 0 127 0" result="hardAlpha"/>
<feOffset dy="4"/>
<feGaussianBlur stdDeviation="2"/>
<feComposite in2="hardAlpha" operator="out"/>
<feColorMatrix type="matrix" values="0 0 0 0 0 0 0 0 0 0 0 0 0 0 0 0 0 0 0.25 0"/>
<feBlend mode="normal" in2="BackgroundImageFix" result="effect1_dropShadow_1001_743"/>
<feBlend mode="normal" in="SourceGraphic" in2="effect1_dropShadow_1001_743" result="shape"/>
</filter>
</defs>
</svg>
