<svg width="24" height="18" viewBox="0 0 24 18" fill="none" xmlns="http://www.w3.org/2000/svg">
<path fill-rule="evenodd" clip-rule="evenodd" d="M5.18936 0.440525C6.2221 -0.0303243 7.38648 -0.127174 8.48282 0.166588C9.01628 0.30953 9.33287 0.857867 9.18993 1.39133C9.04698 1.9248 8.49865 2.24138 7.96518 2.09844C7.31735 1.92485 6.6293 1.98208 6.01905 2.26031C5.40879 2.53854 4.91436 3.02043 4.62055 3.62334C4.32674 4.22624 4.25186 4.91259 4.40874 5.56467C4.56563 6.21675 4.94452 6.79392 5.48042 7.1972C5.77115 7.41599 5.92011 7.77542 5.86935 8.13573C5.8186 8.49603 5.57614 8.80033 5.23628 8.93028C4.55694 9.19004 3.93286 9.59126 3.40869 10.1154C3.23209 10.292 3.06949 10.4799 2.92157 10.6774C2.61334 11.0889 2.63344 11.4336 2.79565 11.7423C2.98719 12.1068 3.42732 12.4847 4.04987 12.6806C4.5767 12.8463 4.86944 13.4077 4.70371 13.9345C4.53799 14.4614 3.97656 14.7541 3.44972 14.5884C2.42792 14.267 1.50917 13.5936 1.02521 12.6727C0.511928 11.6959 0.539903 10.521 1.32082 9.4784C1.52546 9.2052 1.75034 8.94534 1.99447 8.70122C2.37088 8.32481 2.78457 7.99423 3.22685 7.7131C2.87086 7.21007 2.61052 6.64053 2.46424 6.03252C2.19873 4.929 2.32545 3.76749 2.82267 2.74719C3.31989 1.72688 4.15663 0.911375 5.18936 0.440525ZM17.9807 2.26031C17.3704 1.98208 16.6824 1.92485 16.0345 2.09844C15.5011 2.24138 14.9527 1.9248 14.8098 1.39133C14.6668 0.857867 14.9834 0.30953 15.5169 0.166588C16.6132 -0.127174 17.7776 -0.0303243 18.8103 0.440525C19.8431 0.911375 20.6798 1.72688 21.177 2.74719C21.6742 3.76749 21.801 4.929 21.5355 6.03252C21.3892 6.64053 21.1288 7.21007 20.7728 7.7131C21.2151 7.99423 21.6288 8.32481 22.0052 8.70122C22.2494 8.94534 22.4742 9.2052 22.6789 9.4784C23.4598 10.521 23.4878 11.6959 22.9745 12.6727C22.4905 13.5936 21.5718 14.267 20.55 14.5884C20.0231 14.7541 19.4617 14.4614 19.296 13.9345C19.1303 13.4077 19.423 12.8463 19.9498 12.6806C20.5724 12.4847 21.0125 12.1068 21.2041 11.7423C21.3663 11.4336 21.3864 11.0889 21.0781 10.6774C20.9302 10.4799 20.7676 10.292 20.591 10.1154C20.0668 9.59126 19.4428 9.19004 18.7634 8.93028C18.4236 8.80033 18.1811 8.49603 18.1304 8.13573C18.0796 7.77542 18.2285 7.41599 18.5193 7.1972C19.0552 6.79392 19.4341 6.21675 19.591 5.56467C19.7478 4.91259 19.673 4.22624 19.3792 3.62334C19.0853 3.02043 18.5909 2.53854 17.9807 2.26031ZM12 4C10.4045 4 9.11109 5.2934 9.11109 6.88889C9.11109 8.48439 10.4045 9.77783 12 9.77783C13.5955 9.77783 14.8889 8.4844 14.8889 6.88889C14.8889 5.2934 13.5955 4 12 4ZM15.2434 10.5471C16.2528 9.65145 16.8889 8.34444 16.8889 6.88889C16.8889 4.18883 14.7 2 12 2C9.29992 2 7.11109 4.18883 7.11109 6.88889C7.11109 8.34445 7.7472 9.65146 8.75659 10.5471C8.07381 10.8902 7.4436 11.3427 6.89312 11.8932C6.64899 12.1373 6.4241 12.3972 6.21947 12.6704C5.76084 13.2826 5.54487 13.9651 5.5829 14.6538C5.62035 15.3319 5.89927 15.939 6.29803 16.4291C7.08272 17.3936 8.39844 18.0001 9.77778 18.0001H14.2222C15.6016 18.0001 16.9173 17.3936 17.702 16.4291C18.1007 15.939 18.3797 15.3319 18.4171 14.6538C18.4551 13.9651 18.2392 13.2826 17.7805 12.6704C17.5759 12.3972 17.351 12.1373 17.1069 11.8932C16.5564 11.3427 15.9262 10.8902 15.2434 10.5471ZM12 11.7778C10.615 11.7778 9.28669 12.328 8.30733 13.3074C8.13074 13.484 7.96814 13.6719 7.82021 13.8694C7.61665 14.1411 7.57012 14.367 7.57986 14.5435C7.59019 14.7306 7.66931 14.9455 7.84944 15.1669C8.22253 15.6255 8.94797 16.0001 9.77778 16.0001H14.2222C15.052 16.0001 15.7775 15.6255 16.1506 15.1669C16.3307 14.9455 16.4098 14.7306 16.4201 14.5435C16.4299 14.367 16.3834 14.1411 16.1798 13.8694C16.0319 13.6719 15.8693 13.484 15.6927 13.3074C14.7133 12.328 13.385 11.7778 12 11.7778Z" fill="white"/>
</svg>
