<svg width="27" height="26" viewBox="0 0 27 26" fill="none" xmlns="http://www.w3.org/2000/svg">
<path fill-rule="evenodd" clip-rule="evenodd" d="M6.20202 4.00359C7.3036 3.50135 8.54562 3.39804 9.71504 3.71139C10.2841 3.86386 10.6218 4.44875 10.4693 5.01778C10.3168 5.58681 9.73192 5.9245 9.16289 5.77203C8.47187 5.58687 7.73795 5.64791 7.08702 5.94469C6.43608 6.24147 5.90868 6.75549 5.59529 7.39859C5.28189 8.04169 5.20201 8.77379 5.36936 9.46934C5.53671 10.1649 5.94085 10.7805 6.51248 11.2107C6.8226 11.4441 6.98148 11.8275 6.92734 12.2118C6.8732 12.5961 6.61458 12.9207 6.25207 13.0593C5.52743 13.3364 4.86175 13.7644 4.30263 14.3235C4.11427 14.5118 3.94083 14.7123 3.78304 14.9229C3.45426 15.3619 3.4757 15.7296 3.64872 16.0588C3.85304 16.4476 4.3225 16.8507 4.98656 17.0596C5.54852 17.2364 5.86077 17.8353 5.68399 18.3972C5.50722 18.9592 4.90836 19.2714 4.3464 19.0946C3.25648 18.7518 2.27648 18.0336 1.76026 17.0512C1.21276 16.0093 1.2426 14.7561 2.07558 13.644C2.29385 13.3526 2.53373 13.0754 2.79414 12.815C3.19564 12.4135 3.63691 12.0609 4.10868 11.761C3.72895 11.2244 3.45126 10.6169 3.29522 9.96838C3.01201 8.79129 3.14718 7.55235 3.67755 6.46402C4.20792 5.3757 5.10043 4.50582 6.20202 4.00359ZM19.8461 5.94469C19.1951 5.64791 18.4612 5.58687 17.7702 5.77203C17.2012 5.9245 16.6163 5.58681 16.4638 5.01778C16.3113 4.44875 16.649 3.86386 17.218 3.71139C18.3875 3.39804 19.6295 3.50135 20.7311 4.00359C21.8326 4.50582 22.7252 5.3757 23.2555 6.46402C23.7859 7.55235 23.9211 8.79129 23.6379 9.96838C23.4818 10.6169 23.2041 11.2244 22.8244 11.761C23.2962 12.0609 23.7374 12.4135 24.1389 12.815C24.3993 13.0754 24.6392 13.3526 24.8575 13.644C25.6905 14.7561 25.7203 16.0093 25.1728 17.0512C24.6566 18.0336 23.6766 18.7518 22.5867 19.0946C22.0247 19.2714 21.4259 18.9592 21.2491 18.3972C21.0723 17.8353 21.3846 17.2364 21.9465 17.0596C22.6106 16.8507 23.08 16.4476 23.2844 16.0588C23.4574 15.7296 23.4788 15.3619 23.15 14.9229C22.9923 14.7123 22.8188 14.5118 22.6304 14.3235C22.0713 13.7644 21.4056 13.3364 20.681 13.0593C20.3185 12.9207 20.0599 12.5961 20.0057 12.2118C19.9516 11.8275 20.1105 11.4441 20.4206 11.2107C20.9922 10.7805 21.3964 10.1649 21.5637 9.46934C21.7311 8.77379 21.6512 8.04169 21.3378 7.39859C21.0244 6.75549 20.497 6.24147 19.8461 5.94469ZM13.4667 7.80036C11.7648 7.80036 10.3852 9.17998 10.3852 10.8818C10.3852 12.5837 11.7649 13.9634 13.4667 13.9634C15.1685 13.9634 16.5482 12.5837 16.5482 10.8818C16.5482 9.17999 15.1685 7.80036 13.4667 7.80036ZM16.9263 14.7839C18.003 13.8286 18.6815 12.4344 18.6815 10.8818C18.6815 8.00178 16.3467 5.66703 13.4667 5.66703C10.5866 5.66703 8.25186 8.00178 8.25186 10.8818C8.25186 12.4344 8.93038 13.8286 10.0071 14.7839C9.27876 15.1499 8.60654 15.6326 8.01936 16.2197C7.75895 16.4801 7.51907 16.7573 7.3008 17.0487C6.81159 17.7018 6.58123 18.4298 6.6218 19.1644C6.66174 19.8877 6.95926 20.5353 7.3846 21.0581C8.2216 22.0869 9.62504 22.7337 11.0963 22.7337H15.8371C17.3084 22.7337 18.7118 22.0869 19.5488 21.0581C19.9741 20.5353 20.2717 19.8877 20.3116 19.1644C20.3522 18.4298 20.1218 17.7018 19.6326 17.0487C19.4143 16.7573 19.1744 16.4801 18.914 16.2197C18.3268 15.6326 17.6546 15.1499 16.9263 14.7839ZM13.4667 16.0967C11.9893 16.0967 10.5725 16.6836 9.52785 17.7282C9.33949 17.9166 9.16605 18.117 9.00826 18.3277C8.79112 18.6176 8.74149 18.8585 8.75188 19.0468C8.7629 19.2463 8.84729 19.4756 9.03943 19.7117C9.4374 20.2009 10.2112 20.6004 11.0963 20.6004H15.8371C16.7222 20.6004 17.496 20.2009 17.894 19.7117C18.0861 19.4756 18.1705 19.2463 18.1815 19.0468C18.1919 18.8585 18.1423 18.6176 17.9251 18.3277C17.7673 18.117 17.5939 17.9166 17.4055 17.7282C16.3609 16.6836 14.9441 16.0967 13.4667 16.0967Z" fill="white"/>
</svg>
