<svg width="20" height="20" viewBox="0 0 20 20" fill="none" xmlns="http://www.w3.org/2000/svg">
<path d="M13.75 0.273438L13.258 0.812688C12.1562 2.02544 11.248 2.56769 10.492 2.92244C9.736 3.27644 9.10075 3.38219 8.47675 3.85994C7.8115 4.36994 6.84475 5.34794 6.4375 7.09394C5.5645 7.28444 4.9255 7.61894 4.4215 8.05469C3.9235 8.48519 3.5485 8.97494 3.0865 9.50819C3.08275 9.51419 3.08875 9.52544 3.0865 9.53144C2.4235 10.2934 1.84375 11.1139 0.71875 11.5474L0.25 11.7349V19.7502H14.5472C15.367 19.7059 15.9355 19.1382 16.2812 18.5779C16.6262 18.0184 16.8175 17.4124 16.9142 16.9144C17.1632 15.6454 17.617 11.9922 17.617 11.9922L17.641 11.9224V11.8519C17.617 11.3449 17.4085 10.9144 17.1482 10.5154L17.992 8.00819L19.3285 5.99219L19.7035 5.45294L19.2107 5.00819L14.2892 0.742188L13.75 0.273438ZM13.7972 2.33594L17.7107 5.73494L16.6795 7.25744L16.6097 7.32869L16.5857 7.44569L15.9062 9.46094C15.5515 9.31469 15.1862 9.21194 14.7812 9.22694H14.734L10 9.25019H9.25V12.1564C9.145 12.9739 8.6905 13.2904 8.125 13.5162C7.9375 13.5919 7.91425 13.5507 7.75 13.5859V9.22769C7.627 6.44744 8.617 5.64719 9.391 5.05544C9.60475 4.89119 10.231 4.70144 11.125 4.28219C11.872 3.93044 12.8005 3.29969 13.7972 2.33594ZM6.29725 8.78144C6.29425 8.95169 6.241 9.07169 6.25 9.25019V15.2502H7C7 15.2502 7.8025 15.2412 8.66425 14.8984C9.52525 14.5557 10.5655 13.7532 10.75 12.3439V10.7502L14.7812 10.7269H14.8045C15.1337 10.7089 15.4567 10.8221 15.7027 11.0416C15.9487 11.2612 16.0977 11.5693 16.117 11.8984C16.114 11.9104 16.0795 12.1887 16.0705 12.2502H13V13.7502H15.883C15.8035 14.3299 15.7307 14.6937 15.6482 15.2502H13V16.7502H15.4142C15.3256 17.113 15.1833 17.4606 14.992 17.7814C14.7872 18.1152 14.611 18.2412 14.4535 18.2502H1.75V12.6484C2.96575 12.0034 3.72175 11.0757 4.21075 10.5162C4.71775 9.93569 5.06575 9.49619 5.40625 9.20369C5.629 9.01319 5.97775 8.90444 6.29725 8.78144Z" fill="white"/>
</svg>
